<svg xmlns="http://www.w3.org/2000/svg" width="20" height="20" viewBox="0 0 20 20" shape-rendering="crispEdges">
  <g fill="#F59E0B">
    <rect x="9" y="2" width="2" height="2"></rect>
    <rect x="9" y="4" width="2" height="2"></rect>
    <rect x="7" y="6" width="2" height="2"></rect>
    <rect x="11" y="6" width="2" height="2"></rect>
    <rect x="2" y="9" width="2" height="2"></rect>
    <rect x="4" y="9" width="2" height="2"></rect>
    <rect x="6" y="9" width="2" height="2"></rect>
    <rect x="8" y="9" width="4" height="2"></rect>
    <rect x="12" y="9" width="2" height="2"></rect>
    <rect x="14" y="9" width="2" height="2"></rect>
    <rect x="16" y="9" width="2" height="2"></rect>
    <rect x="7" y="11" width="2" height="2"></rect>
    <rect x="11" y="11" width="2" height="2"></rect>
    <rect x="9" y="13" width="2" height="2"></rect>
    <rect x="9" y="15" width="2" height="2"></rect>
  </g>
</svg>