<svg xmlns="http://www.w3.org/2000/svg" xmlns:xlink="http://www.w3.org/1999/xlink" width="2000" zoomAndPan="magnify" viewBox="0 0 1500 1499.999933" height="2000" preserveAspectRatio="xMidYMid meet" version="1.0"><defs><g></g><clipPath id="4eaa700f08"><path d="M 0.441406 222 L 660 222 L 660 634 L 0.441406 634 Z M 0.441406 222 " clip-rule="nonzero"></path></clipPath><clipPath id="46b4d7883b"><rect x="0" width="668" y="0" height="734"></rect></clipPath></defs><rect x="-150" width="1800" fill="#ffffff" y="-149.999993" height="1799.99992" fill-opacity="1"></rect><rect x="-150" width="1800" fill="#1b1b1b" y="-149.999993" height="1799.99992" fill-opacity="1"></rect><g transform="matrix(1, 0, 0, 1, 403, 353)"><g clip-path="url(#46b4d7883b)"><g clip-path="url(#4eaa700f08)"><g fill="#eeede9" fill-opacity="1"><g transform="translate(0.53577, 633.671005)"><g><path d="M 306.75 -411.25 L 421.015625 -411.25 L 421.015625 -296.96875 L 306.75 -296.96875 Z M 658.71875 -296.96875 L 544.453125 -296.96875 L 544.453125 -411.25 L 658.71875 -411.25 Z M 0 -328.75 L 80.65625 -409.40625 L 80.65625 -196.15625 L 0 -117.9375 Z M 0 -114.265625 C 50.925781 -163.554688 101.644531 -212.847656 152.15625 -262.140625 C 202.664062 -311.429688 252.976562 -360.519531 303.09375 -409.40625 L 303.09375 -295.75 L 0 -1.21875 Z M 82.5 -409.40625 L 163.15625 -328.75 L 163.15625 -277.421875 L 82.5 -199.203125 Z M 238.3125 -114.265625 C 289.238281 -163.554688 340.0625 -212.847656 390.78125 -262.140625 C 441.5 -311.429688 492.113281 -360.519531 542.625 -409.40625 L 542.625 -295.75 L 238.3125 -1.21875 Z M 2.4375 0 L 305.53125 -293.921875 L 418.578125 -293.921875 L 116.71875 0 Z M 355.03125 0 L 240.765625 0 L 543.234375 -293.921875 L 656.890625 -293.921875 Z M 355.03125 0 "></path></g></g></g></g></g></g><g fill="#eeede9" fill-opacity="1"><g transform="translate(880.734965, 991.043343)"><g><path d="M 3.1875 0 L 3.1875 -72.15625 L 32.09375 -72.15625 L 32.09375 -58.125 L 17.71875 -58.125 L 17.71875 -46.625 L 31.328125 -46.625 L 31.328125 -32.765625 L 17.71875 -32.765625 L 17.71875 0 Z M 3.1875 0 "></path></g></g></g><g fill="#eeede9" fill-opacity="1"><g transform="translate(912.818371, 991.043343)"><g><path d="M 20.828125 0.671875 C 8.566406 0.671875 2.4375 -5.679688 2.4375 -18.390625 L 2.4375 -43.09375 C 2.4375 -48.914062 4.070312 -53.546875 7.34375 -56.984375 C 10.625 -60.429688 15.117188 -62.15625 20.828125 -62.15625 C 26.546875 -62.15625 31.039062 -60.429688 34.3125 -56.984375 C 37.59375 -53.546875 39.234375 -48.914062 39.234375 -43.09375 L 39.234375 -18.390625 C 39.234375 -5.679688 33.097656 0.671875 20.828125 0.671875 Z M 20.828125 -10.671875 C 22.003906 -10.671875 22.875 -11.085938 23.4375 -11.921875 C 24 -12.765625 24.28125 -13.914062 24.28125 -15.375 L 24.28125 -45.4375 C 24.28125 -49.019531 23.128906 -50.8125 20.828125 -50.8125 C 18.535156 -50.8125 17.390625 -49.019531 17.390625 -45.4375 L 17.390625 -15.375 C 17.390625 -13.914062 17.664062 -12.765625 18.21875 -11.921875 C 18.78125 -11.085938 19.648438 -10.671875 20.828125 -10.671875 Z M 20.828125 -10.671875 "></path></g></g></g><g fill="#eeede9" fill-opacity="1"><g transform="translate(953.132642, 991.043343)"><g><path d="M 1.765625 0.921875 L 8.8125 0.921875 C 9.820312 0.921875 10.328125 0.5 10.328125 -0.34375 C 10.328125 -0.726562 10.300781 -1.035156 10.25 -1.265625 L 0.671875 -61.484375 L 14.703125 -61.484375 L 17.46875 -31.5 L 18.8125 -16.21875 L 20.40625 -31.5 L 23.6875 -61.484375 L 37.796875 -61.484375 L 26.375 3.1875 C 25.976562 5.59375 25.175781 7.367188 23.96875 8.515625 C 22.769531 9.671875 20.882812 10.25 18.3125 10.25 L 1.765625 10.25 Z M 1.765625 0.921875 "></path></g></g></g><g fill="#eeede9" fill-opacity="1"><g transform="translate(990.423326, 991.043343)"><g><path d="M 20.15625 0.671875 C 13.832031 0.671875 9.296875 -1.0625 6.546875 -4.53125 C 3.804688 -8.007812 2.4375 -13.191406 2.4375 -20.078125 L 2.4375 -44.765625 C 2.4375 -50.421875 4.0625 -54.734375 7.3125 -57.703125 C 10.5625 -60.671875 15.097656 -62.15625 20.921875 -62.15625 C 32.734375 -62.15625 38.640625 -56.359375 38.640625 -44.765625 L 38.640625 -40.3125 C 38.640625 -35.832031 38.582031 -32.195312 38.46875 -29.40625 L 17.140625 -29.40625 L 17.140625 -17.46875 C 17.140625 -15.34375 17.363281 -13.675781 17.8125 -12.46875 C 18.257812 -11.269531 19.207031 -10.671875 20.65625 -10.671875 C 21.78125 -10.671875 22.578125 -11.003906 23.046875 -11.671875 C 23.523438 -12.347656 23.804688 -13.117188 23.890625 -13.984375 C 23.984375 -14.847656 24.03125 -16.125 24.03125 -17.8125 L 24.03125 -23.765625 L 38.640625 -23.765625 L 38.640625 -20.25 C 38.640625 -13.070312 37.253906 -7.789062 34.484375 -4.40625 C 31.710938 -1.019531 26.9375 0.671875 20.15625 0.671875 Z M 24.03125 -36.703125 L 24.03125 -44.609375 C 24.03125 -49.023438 22.9375 -51.234375 20.75 -51.234375 C 18.28125 -51.234375 17.046875 -49.023438 17.046875 -44.609375 L 17.046875 -36.703125 Z M 24.03125 -36.703125 "></path></g></g></g><g fill="#eeede9" fill-opacity="1"><g transform="translate(1029.981703, 991.043343)"><g><path d="M 2.9375 -61.484375 L 17.640625 -61.484375 L 17.640625 -54.6875 C 18.367188 -57.09375 19.640625 -58.953125 21.453125 -60.265625 C 23.273438 -61.585938 25.53125 -62.25 28.21875 -62.25 L 28.21875 -49.984375 C 26.144531 -49.984375 23.863281 -49.6875 21.375 -49.09375 C 18.882812 -48.507812 17.640625 -47.828125 17.640625 -47.046875 L 17.640625 0 L 2.9375 0 Z M 2.9375 -61.484375 "></path></g></g></g></svg>